<?xml version="1.0" encoding="UTF-8"?>
<svg width="19px" height="19px" viewBox="0 0 19 19" version="1.1" xmlns="http://www.w3.org/2000/svg" xmlns:xlink="http://www.w3.org/1999/xlink">
    <!-- Generator: Sketch 47.1 (45422) - http://www.bohemiancoding.com/sketch -->
    <title>annuler</title>
    <desc>Created with Sketch.</desc>
    <defs></defs>
    <g id="Guidelines" stroke="none" stroke-width="1" fill="none" fill-rule="evenodd" stroke-linejoin="round">
        <g id="Icons" transform="translate(-1546.000000, -1125.000000)" stroke="#000000">
            <g id="annuler" transform="translate(1547.000000, 1126.000000)">
                <path d="M16.6458333,8.5 C16.6458333,12.9993333 12.9993333,16.6458333 8.5,16.6458333 C4.001375,16.6458333 0.354166667,12.9993333 0.354166667,8.5 C0.354166667,4.00066667 4.001375,0.354166667 8.5,0.354166667 C12.9993333,0.354166667 16.6458333,4.00066667 16.6458333,8.5 L16.6458333,8.5 Z" id="Stroke-182" stroke-linecap="round"></path>
                <path d="M8.5,3.0695625 C5.50091667,3.0695625 3.06920833,5.50127083 3.06920833,8.50035417 C3.06920833,9.6315625 3.41558333,10.6820208 4.00845833,11.5511458 L11.5522083,4.0088125 C10.6816667,3.41664583 9.63191667,3.0695625 8.5,3.0695625 L8.5,3.0695625 Z" id="Stroke-183"></path>
                <path d="M5.448075,12.9914 C6.31790833,13.5835667 7.36836667,13.93065 8.50028333,13.93065 C11.4986583,13.93065 13.931075,11.49965 13.931075,8.49985833 C13.931075,7.36865 13.5832833,6.31819167 12.9911167,5.44835833 L5.448075,12.9914 L5.448075,12.9914 Z" id="Stroke-184"></path>
            </g>
        </g>
    </g>
</svg>