<?xml version="1.0" encoding="UTF-8"?>
<svg width="24px" height="24px" viewBox="0 0 24 24" version="1.1" xmlns="http://www.w3.org/2000/svg" xmlns:xlink="http://www.w3.org/1999/xlink">
    <!-- Generator: Sketch 47.1 (45422) - http://www.bohemiancoding.com/sketch -->
    <title>telecharger</title>
    <desc>Created with Sketch.</desc>
    <defs></defs>
    <g id="Guidelines" stroke="none" stroke-width="1" fill="none" fill-rule="evenodd" stroke-linejoin="round">
        <g id="Icons" transform="translate(-875.000000, -759.000000)" stroke="#2D2F40">
            <g id="telecharger" transform="translate(875.000000, 759.000000)">
                <polyline id="Stroke-189" points="10.5 21.5 0.5 21.5 0.5 0.5 11.5 0.5 16.5 5.502 16.5 9.5"></polyline>
                <polyline id="Stroke-191" stroke-linecap="round" points="11.5 0.5 11.5 5.5 16.5 5.5"></polyline>
                <path d="M23.5,17.5 C23.5,20.814 20.814,23.5 17.5,23.5 C14.186,23.5 11.5,20.814 11.5,17.5 C11.5,14.186 14.186,11.5 17.5,11.5 C20.814,11.5 23.5,14.186 23.5,17.5 L23.5,17.5 Z" id="Stroke-193"></path>
                <path d="M17.5,20.2256 L17.5,14.7716" id="Stroke-195" stroke-linecap="round"></path>
                <polyline id="Stroke-197" stroke-linecap="round" points="15.3184 18.0459 17.5004 20.2279 19.6814 18.0459"></polyline>
            </g>
        </g>
    </g>
</svg>