<?xml version="1.0" encoding="UTF-8"?>
<svg width="24px" height="24px" viewBox="0 0 24 24" version="1.1" xmlns="http://www.w3.org/2000/svg" xmlns:xlink="http://www.w3.org/1999/xlink">
    <!-- Generator: Sketch 47.1 (45422) - http://www.bohemiancoding.com/sketch -->
    <title>ecouter</title>
    <desc>Created with Sketch.</desc>
    <defs></defs>
    <g id="Guidelines" stroke="none" stroke-width="1" fill="none" fill-rule="evenodd" stroke-linejoin="round">
        <g id="Icons" transform="translate(-919.000000, -759.000000)" stroke="#2D2F40">
            <g id="ecouter" transform="translate(919.000000, 759.000000)">
                <path d="M23.4545455,8.72727273 C23.4545455,4.81090909 20.28,1.63636364 16.3636364,1.63636364 C12.4472727,1.63636364 9.27272727,4.81090909 9.27272727,8.72727273 C9.27272727,10.8130909 10.1738182,12.684 11.6083636,13.9789091 C12.8989091,15.1461818 13.6363636,16.8043636 13.6363636,18.5454545 C13.6363636,21.2563636 15.8345455,23.4545455 18.5454545,23.4545455 C21.2563636,23.4545455 23.4545455,21.2563636 23.4545455,18.5454545" id="Stroke-7126"></path>
                <path d="M4.23152727,0.980072727 C1.96134545,3.25025455 0.557345455,6.38661818 0.557345455,9.85134545 C0.557345455,13.3160727 1.96134545,16.4524364 4.23152727,18.7226182" id="Stroke-7127" stroke-linecap="round"></path>
                <path d="M7.31781818,4.06636364 C5.83745455,5.54563636 4.92109091,7.59109091 4.92109091,9.85145455 C4.92109091,12.1096364 5.83745455,14.1561818 7.31781818,15.6354545" id="Stroke-7128" stroke-linecap="round"></path>
                <path d="M19.6363636,8.72727273 C19.6363636,6.91963636 18.1701818,5.45454545 16.3636364,5.45454545 C14.556,5.45454545 13.0909091,6.91963636 13.0909091,8.72727273 C13.0909091,9.79527273 13.6047273,10.7410909 14.3956364,11.3367273 C14.9476364,11.7501818 15.2727273,12.4003636 15.2727273,13.0909091 C15.2727273,14.2952727 16.2501818,15.2727273 17.4545455,15.2727273 C18.6589091,15.2727273 19.6363636,14.2952727 19.6363636,13.0909091" id="Stroke-7129" stroke-linecap="round"></path>
            </g>
        </g>
    </g>
</svg>