<?xml version="1.0" encoding="UTF-8"?>
<svg width="27px" height="17px" viewBox="0 0 27 17" version="1.1" xmlns="http://www.w3.org/2000/svg" xmlns:xlink="http://www.w3.org/1999/xlink">
    <!-- Generator: Sketch 47.1 (45422) - http://www.bohemiancoding.com/sketch -->
    <title>AA</title>
    <desc>Created with Sketch.</desc>
    <defs></defs>
    <g id="Guidelines" stroke="none" stroke-width="1" fill="none" fill-rule="evenodd">
        <g id="Icons" transform="translate(-996.000000, -701.000000)" fill="#2D2F40">
            <path d="M1006,718 L1004.375,713.961342 L999.142857,713.961342 L997.535714,718 L996,718 L1001.16071,705.25 L1002.4375,705.25 L1007.57143,718 L1006,718 Z M1003.90179,712.632493 L1002.38393,708.698059 C1002.1875,708.2001 1001.98512,707.589241 1001.77679,706.865463 C1001.64583,707.421324 1001.45833,708.032183 1001.21429,708.698059 L999.678571,712.632493 L1003.90179,712.632493 Z M1020.90476,718 L1018.7381,712.615123 L1011.7619,712.615123 L1009.61905,718 L1007.57143,718 L1014.45238,701 L1016.15476,701 L1023,718 L1020.90476,718 Z M1018.10714,710.843324 L1016.08333,705.597411 C1015.82143,704.933466 1015.55159,704.118988 1015.27381,703.153951 C1015.09921,703.895099 1014.84921,704.709578 1014.52381,705.597411 L1012.47619,710.843324 L1018.10714,710.843324 Z" id="AA"></path>
        </g>
    </g>
</svg>