<?xml version="1.0" encoding="UTF-8"?>
<svg width="18px" height="17px" viewBox="0 0 18 17" version="1.1" xmlns="http://www.w3.org/2000/svg" xmlns:xlink="http://www.w3.org/1999/xlink">
    <!-- Generator: Sketch 47.1 (45422) - http://www.bohemiancoding.com/sketch -->
    <title>Linkedin</title>
    <desc>Created with Sketch.</desc>
    <defs></defs>
    <g id="Guidelines" stroke="none" stroke-width="1" fill="none" fill-rule="evenodd">
        <g id="Icons" transform="translate(-1665.000000, -756.000000)" fill="#2D2F40">
            <g id="Linkedin" transform="translate(1665.000000, 756.000000)">
                <path d="M11.8199393,9.35681798 C10.9208711,9.35681798 10.1926666,10.0858361 10.1926666,10.9840907 L10.1926666,16.6795451 L6.12448487,16.6795451 C6.12448487,16.6795451 6.17248941,6.91590894 6.12448487,6.1022726 L10.1926666,6.1022726 L10.1926666,7.31052257 C10.1926666,7.31052257 11.4521757,6.13644532 13.3975802,6.13644532 C15.8067574,6.13644532 17.5153937,7.88006801 17.5153937,11.2656089 L17.5153937,16.6795451 L13.447212,16.6795451 L13.447212,10.9840907 C13.447212,10.0858361 12.7190075,9.35681798 11.8199393,9.35681798 L11.8199393,9.35681798 Z M2.45498495,4.4749999 L2.43138949,4.4749999 C1.20198497,4.4749999 0.407062264,3.51328174 0.407062264,2.45636813 C0.407062264,1.37504543 1.22639406,0.493877262 2.47939404,0.493877262 C3.73320765,0.493877262 4.50372127,1.4035227 4.52813036,2.4848454 C4.52813036,3.54257265 3.73320765,4.4749999 2.45498495,4.4749999 L2.45498495,4.4749999 Z M4.49721218,16.6795451 L0.429030445,16.6795451 L0.429030445,6.1022726 L4.49721218,6.1022726 L4.49721218,16.6795451 Z" id="Fill-263"></path>
            </g>
        </g>
    </g>
</svg>