<?xml version="1.0" encoding="UTF-8"?>
<svg width="24px" height="24px" viewBox="0 0 24 24" version="1.1" xmlns="http://www.w3.org/2000/svg" xmlns:xlink="http://www.w3.org/1999/xlink">
    <!-- Generator: Sketch 47.1 (45422) - http://www.bohemiancoding.com/sketch -->
    <title>partager</title>
    <desc>Created with Sketch.</desc>
    <defs></defs>
    <g id="Guidelines" stroke="none" stroke-width="1" fill="none" fill-rule="evenodd" stroke-linejoin="round">
        <g id="Icons" transform="translate(-831.000000, -759.000000)" stroke="#2D2F40">
            <g id="partager" transform="translate(831.000000, 759.000000)">
                <path d="M8.0742,10.2129 C7.4182,8.9019 6.0662,7.9999 4.5002,7.9999 C2.2912,7.9999 0.5002,9.7909 0.5002,11.9999 C0.5002,14.2089 2.2912,15.9999 4.5002,15.9999 C6.0662,15.9999 7.4182,15.0979 8.0742,13.7869" id="Stroke-336"></path>
                <path d="M19.5,8.5 C21.709,8.5 23.5,6.709 23.5,4.5 C23.5,2.291 21.709,0.5 19.5,0.5 C17.291,0.5 15.5,2.291 15.5,4.5 C15.5,5.143 15.656,5.748 15.925,6.287" id="Stroke-337"></path>
                <path d="M15.9248,17.7129 C14.5978,20.3609 16.5238,23.4999 19.4998,23.4999 C21.7088,23.4999 23.4998,21.7089 23.4998,19.4999 C23.4998,17.2909 21.7088,15.4999 19.4998,15.4999" id="Stroke-338"></path>
                <path d="M19.5,8.5 C17.934,8.5 16.582,7.598 15.925,6.287 L8.074,10.213 C8.344,10.75 8.5,11.356 8.5,12 C8.5,12.643 8.344,13.248 8.074,13.787 L15.925,17.713 C16.582,16.402 17.934,15.5 19.5,15.5" id="Stroke-339"></path>
            </g>
        </g>
    </g>
</svg>