<?xml version="1.0" encoding="UTF-8"?>
<svg width="20px" height="16px" viewBox="0 0 20 16" version="1.1" xmlns="http://www.w3.org/2000/svg" xmlns:xlink="http://www.w3.org/1999/xlink">
    <!-- Generator: Sketch 47.1 (45422) - http://www.bohemiancoding.com/sketch -->
    <title>Twitter</title>
    <desc>Created with Sketch.</desc>
    <defs></defs>
    <g id="Guidelines" stroke="none" stroke-width="1" fill="none" fill-rule="evenodd">
        <g id="Icons" transform="translate(-1603.000000, -757.000000)" fill="#2D2F40">
            <g id="Twitter" transform="translate(1603.000000, 757.000000)">
                <path d="M20,2.07466667 C19.2746391,2.39733333 18.6633399,2.408 18.0146142,2.08888889 C18.8513634,1.58933333 18.889681,1.23911111 19.1917662,0.294222222 C18.4093744,0.757333333 17.5423276,1.09422222 16.6200321,1.27644444 C15.8821957,0.491555556 14.8289075,0 13.6651221,0 C11.4284441,0 9.61593299,1.80977778 9.61593299,4.03911111 C9.61593299,4.35644444 9.65157726,4.66488889 9.72019248,4.96 C6.35448227,4.792 3.37105685,3.18311111 1.37408662,0.738666667 C1.02566387,1.336 0.825164855,2.03022222 0.825164855,2.77066667 C0.825164855,4.17244444 1.54072358,5.408 2.62698271,6.13244444 C1.96310818,6.11111111 1.33933345,5.92977778 0.793085012,5.62755556 C0.792193905,5.64444444 0.792193905,5.66044444 0.792193905,5.67822222 C0.792193905,7.63555556 2.18855819,9.26755556 4.04116913,9.63911111 C3.44769203,9.8 2.82213509,9.82488889 2.21172696,9.70844444 C2.72767778,11.3128889 4.22295491,12.4808889 5.99447514,12.5137778 C4.26216361,13.8684444 2.11370522,14.4328889 0,14.1857778 C1.79201568,15.3315556 3.91997861,16 6.20655855,16 C13.6553199,16 17.7267867,9.84533333 17.7267867,4.50755556 C17.7267867,4.33155556 17.7241133,4.15911111 17.7160934,3.98488889 C18.5065051,3.416 19.457316,2.88533333 20,2.07466667" id="Fill-264"></path>
            </g>
        </g>
    </g>
</svg>